<?xml version="1.0" standalone="no"?>
<!DOCTYPE svg PUBLIC "-//W3C//DTD SVG 20010904//EN"
 "http://www.w3.org/TR/2001/REC-SVG-20010904/DTD/svg10.dtd">
<svg version="1.0" xmlns="http://www.w3.org/2000/svg"
 width="192.000000pt" height="192.000000pt" viewBox="0 0 192.000000 192.000000"
 preserveAspectRatio="xMidYMid meet">
<metadata>
Created by potrace 1.16, written by Peter Selinger 2001-2019
</metadata>
<g transform="translate(0.000000,192.000000) scale(0.100000,-0.100000)"
fill="#000000" stroke="none">
<path d="M1500 1505 c-80 -53 -95 -83 -104 -200 -1 -16 -7 -42 -13 -56 -6 -14
-17 -55 -23 -90 -6 -35 -15 -71 -20 -80 -5 -9 -16 -47 -25 -85 -10 -38 -22
-75 -27 -81 -6 -7 -8 -19 -5 -27 3 -7 -2 -26 -12 -42 -9 -16 -23 -48 -31 -72
-16 -50 -27 -60 -44 -41 -21 23 -38 89 -65 254 -7 40 -17 66 -31 77 -11 9 -16
19 -11 22 12 8 3 68 -15 115 -8 18 -14 42 -14 52 0 10 -10 28 -22 39 -19 17
-20 24 -11 39 16 26 6 80 -22 115 -22 28 -27 29 -62 20 -26 -6 -39 -15 -41
-29 -2 -11 -9 -33 -17 -50 -7 -16 -20 -75 -29 -129 -10 -55 -21 -106 -25 -115
-5 -9 -11 -42 -15 -75 -8 -68 -39 -175 -67 -229 -11 -20 -18 -45 -15 -55 3
-10 -7 -31 -24 -51 -26 -30 -29 -32 -38 -15 -5 11 -17 53 -26 93 -17 75 -41
142 -77 216 -10 22 -19 45 -19 52 0 6 -9 15 -20 18 -21 7 -29 58 -10 70 5 3
-1 29 -15 62 -14 30 -25 61 -25 68 0 7 -15 16 -32 19 -31 6 -31 8 -13 18 11 6
22 12 23 14 8 6 -32 145 -44 154 -9 8 -23 5 -53 -14 -22 -14 -45 -26 -51 -26
-6 0 -15 -11 -21 -24 -9 -20 -8 -31 9 -58 11 -18 25 -51 32 -73 7 -22 18 -47
25 -55 7 -8 15 -31 18 -50 6 -42 85 -210 98 -210 5 0 9 -11 9 -24 0 -34 28
-96 44 -96 9 0 13 -15 13 -53 0 -70 10 -97 35 -97 15 0 18 -4 13 -17 -11 -25
-9 -41 8 -93 9 -25 23 -76 33 -114 32 -125 69 -137 93 -31 7 30 15 55 19 55 4
0 8 21 9 48 1 26 11 74 22 106 12 33 21 69 21 82 0 13 5 26 10 29 6 3 10 21
10 38 0 18 9 46 20 62 11 17 20 44 20 60 0 17 10 46 22 65 13 19 30 59 38 89
21 71 37 75 46 14 4 -26 14 -53 22 -59 10 -7 11 -13 4 -18 -7 -4 -4 -19 8 -44
17 -34 31 -73 76 -217 9 -27 16 -69 15 -93 -2 -34 3 -47 21 -62 13 -11 17 -19
11 -20 -14 0 -18 -50 -5 -50 5 0 15 -26 22 -57 15 -69 28 -100 45 -107 18 -6
55 22 55 42 0 9 7 30 15 45 8 15 17 45 21 65 4 20 13 46 20 57 8 11 14 42 14
70 0 32 8 68 22 96 12 24 21 61 20 82 0 20 3 37 9 37 15 0 36 60 60 170 6 25
19 61 30 81 10 20 19 44 19 53 0 9 5 25 12 35 6 10 8 27 4 37 -9 23 -6 30 10
26 7 -1 20 30 32 75 26 97 37 173 26 172 -5 0 -25 -11 -44 -24z"/>
</g>
</svg>
